<svg xmlns="http://www.w3.org/2000/svg" version="1.1" xmlns:xlink="http://www.w3.org/1999/xlink" width="700" height="700"><svg version="1.1" id="SvgjsSvg1009" xmlns="http://www.w3.org/2000/svg" xmlns:xlink="http://www.w3.org/1999/xlink" x="0px" y="0px" viewBox="0 0 700 700" style="enable-background:new 0 0 700 700;" xml:space="preserve">
<style type="text/css">
	.st0{fill:#0077E3;}
	.st1{fill:#FFFFFF;}
</style>
<title>PushAlert Logo</title>
<rect class="st0" width="700" height="700"></rect>
<g id="SvgjsG1008">
	<g id="SvgjsG1007">
		<path class="st1" d="M349.4,547.2c30.7,0,55.6-19,55.6-34.6H293.8C293.8,528.2,318.7,547.2,349.4,547.2z M492.8,465.7L492.8,465.7
			c-19.5-18-30.6-43.3-30.6-69.8v-71.7c0-46.3-28.3-87.8-71.3-104.8v-25.2c0-22.9-18.6-41.5-41.5-41.5s-41.5,18.6-41.5,41.5v25.2
			c-43,17-71.3,58.6-71.3,104.8v71.7c0,26.5-11.1,51.8-30.6,69.8v0.1c-7.5,6-8.6,16.9-2.7,24.3c3.3,4.1,8.2,6.5,13.5,6.5H482
			c9.6,0,17.3-7.7,17.3-17.3C499.3,474,496.9,469,492.8,465.7z M349.4,209.9c-10.3,0-18.7-8.4-18.7-18.7c0-10.3,8.4-18.7,18.7-18.7
			c10.3,0,18.7,8.4,18.7,18.7C368.1,201.5,359.7,209.9,349.4,209.9z M471.2,180.8l-10.6,16.1c31.4,20.7,52.9,53.3,59.6,90.3l19-3.4
			C531.6,241.6,507,204.4,471.2,180.8L471.2,180.8z M237.9,196.9l-10.6-16.1c-35.8,23.6-60.4,60.9-68,103.1l19,3.4
			C185,250.2,206.5,217.6,237.9,196.9L237.9,196.9z"></path>
	</g>
</g>
</svg><style>@media (prefers-color-scheme: light) { :root { filter: none; } }
@media (prefers-color-scheme: dark) { :root { filter: none; } }
</style></svg>